<svg width="290" height="303" viewBox="0 0 290 303" fill="none" xmlns="http://www.w3.org/2000/svg">
<path d="M25.9961 271.293C25.7487 271.267 25.5599 271.156 25.4297 270.961C25.2995 270.766 25.2474 270.551 25.2734 270.316C25.3385 269.913 25.4622 269.542 25.6445 269.203C25.8268 268.865 25.957 268.611 26.0352 268.441C26.1263 268.272 26.2174 268.083 26.3086 267.875L27.0508 266.156L35.0781 242.113L43.7109 258.793L52.0898 242.113L62.1094 271H51.6211L46.7773 256.078L39.2773 271.703L31.3867 257.641L28.6523 266.176C28.2227 267.126 27.9167 267.934 27.7344 268.598C27.5521 269.262 27.4023 269.776 27.2852 270.141C27.0247 270.961 26.5951 271.345 25.9961 271.293ZM70.918 267.523C68.5352 267.523 66.9076 267.504 66.0352 267.465L65.4688 268.812C65.2995 269.19 65.1432 269.587 65 270.004C64.7005 270.811 64.2839 271.215 63.75 271.215C63.5026 271.215 63.3008 271.137 63.1445 270.98C62.9883 270.824 62.9102 270.661 62.9102 270.492C62.9102 270.206 63.0339 269.887 63.2812 269.535C63.6719 268.988 64.056 268.272 64.4336 267.387C63.3138 267.283 62.7539 266.957 62.7539 266.41C62.7539 265.863 63.0729 265.59 63.7109 265.59C64.1016 265.59 64.5573 265.655 65.0781 265.785L74.8242 242.113L88.1836 271H78.0078L76.3867 267.523H70.918ZM66.6602 265.941C67.9102 266.046 69.0299 266.098 70.0195 266.098H75.7422L70.8594 255.57L66.6602 265.941ZM94.2773 268.207L94.3359 270.16C94.3359 270.499 94.2448 270.759 94.0625 270.941C93.8802 271.124 93.6589 271.215 93.3984 271.215C93.151 271.215 92.9427 271.13 92.7734 270.961C92.6042 270.792 92.5195 270.609 92.5195 270.414C92.5195 270.206 92.5326 270.017 92.5586 269.848C92.5977 269.665 92.6302 269.464 92.6562 269.242C92.7214 268.865 92.7539 267.921 92.7539 266.41V242.113L113.984 258.949V247.309C113.984 246.423 113.958 245.792 113.906 245.414C113.841 244.802 113.809 244.372 113.809 244.125C113.809 243.474 114.089 243.148 114.648 243.148C114.87 243.148 115.078 243.227 115.273 243.383C115.482 243.539 115.586 243.767 115.586 244.066V244.75L115.508 247.582V272.074L94.2773 255.414V268.207ZM142.578 243.871C142.578 244.47 141.947 244.77 140.684 244.77H136.152V271H126.152V244.77H123.223C122.22 244.77 121.53 244.815 121.152 244.906C120.658 245.01 120.299 245.062 120.078 245.062C119.414 245.062 119.082 244.802 119.082 244.281C119.082 243.669 119.727 243.363 121.016 243.363H138.438C139.336 243.363 140 243.324 140.43 243.246C140.951 243.155 141.341 243.109 141.602 243.109C142.253 243.109 142.578 243.363 142.578 243.871ZM168.047 268.168L168.105 270.16C168.105 270.499 168.008 270.759 167.812 270.941C167.617 271.124 167.389 271.215 167.129 271.215C166.882 271.215 166.68 271.13 166.523 270.961C166.38 270.792 166.309 270.577 166.309 270.316C166.309 270.056 166.341 269.763 166.406 269.438C166.497 269.034 166.543 268.025 166.543 266.41V252.152H156.719V271H146.738V243.363H156.719V250.727C159.531 250.727 161.771 250.727 163.438 250.727C165.117 250.727 166.152 250.72 166.543 250.707V247.309C166.543 246.176 166.523 245.44 166.484 245.102L166.406 244.516C166.393 244.333 166.387 244.177 166.387 244.047C166.387 243.448 166.66 243.148 167.207 243.148C167.402 243.148 167.604 243.227 167.812 243.383C168.021 243.539 168.125 243.799 168.125 244.164L168.047 246.664V250.629L169.277 250.453C169.512 250.453 169.707 250.525 169.863 250.668C170.02 250.798 170.098 250.974 170.098 251.195C170.098 251.703 169.694 251.99 168.887 252.055C168.743 252.081 168.6 252.1 168.457 252.113C168.327 252.113 168.19 252.12 168.047 252.133V268.168ZM180.176 267.523C177.793 267.523 176.165 267.504 175.293 267.465L174.727 268.812C174.557 269.19 174.401 269.587 174.258 270.004C173.958 270.811 173.542 271.215 173.008 271.215C172.76 271.215 172.559 271.137 172.402 270.98C172.246 270.824 172.168 270.661 172.168 270.492C172.168 270.206 172.292 269.887 172.539 269.535C172.93 268.988 173.314 268.272 173.691 267.387C172.572 267.283 172.012 266.957 172.012 266.41C172.012 265.863 172.331 265.59 172.969 265.59C173.359 265.59 173.815 265.655 174.336 265.785L184.082 242.113L197.441 271H187.266L185.645 267.523H180.176ZM175.918 265.941C177.168 266.046 178.288 266.098 179.277 266.098H185L180.117 255.57L175.918 265.941ZM203.535 268.207L203.594 270.16C203.594 270.499 203.503 270.759 203.32 270.941C203.138 271.124 202.917 271.215 202.656 271.215C202.409 271.215 202.201 271.13 202.031 270.961C201.862 270.792 201.777 270.609 201.777 270.414C201.777 270.206 201.79 270.017 201.816 269.848C201.855 269.665 201.888 269.464 201.914 269.242C201.979 268.865 202.012 267.921 202.012 266.41V242.113L223.242 258.949V247.309C223.242 246.423 223.216 245.792 223.164 245.414C223.099 244.802 223.066 244.372 223.066 244.125C223.066 243.474 223.346 243.148 223.906 243.148C224.128 243.148 224.336 243.227 224.531 243.383C224.74 243.539 224.844 243.767 224.844 244.066V244.75L224.766 247.582V272.074L203.535 255.414V268.207ZM234.668 267.484C233.379 266.221 232.35 264.698 231.582 262.914C230.827 261.117 230.449 259.164 230.449 257.055C230.449 254.932 230.807 253.031 231.523 251.352C232.253 249.659 233.255 248.194 234.531 246.957C237.266 244.327 240.697 243.012 244.824 243.012C248.926 243.012 252.285 244.307 254.902 246.898C257.559 249.529 258.887 252.94 258.887 257.133C258.887 261.312 257.526 264.75 254.805 267.445C253.099 269.112 251.003 270.264 248.516 270.902C247.279 271.215 245.84 271.371 244.199 271.371C242.572 271.371 240.898 271.039 239.18 270.375C237.461 269.698 235.957 268.734 234.668 267.484ZM244.805 244.438C244.089 244.438 243.418 244.49 242.793 244.594V269.789C243.392 269.893 244.062 269.945 244.805 269.945C248.281 269.945 251.211 268.786 253.594 266.469C256.081 264.06 257.324 260.948 257.324 257.133C257.324 253.5 256.159 250.479 253.828 248.07C251.471 245.648 248.464 244.438 244.805 244.438Z" fill="#ADC8FF"/>
<path d="M51.2461 289.962V294.464H56.1538V295.914H51.2461V300.551H56.7335V302H49.4878V288.513H56.7335V289.962H51.2461ZM67.6831 288.533V289.962H64.012V302H62.2537V289.962H58.5632V288.533H67.6831ZM71.6058 289.962V294.464H76.5135V295.914H71.6058V300.551H77.0932V302H69.8475V288.513H77.0932V289.962H71.6058ZM79.0968 295.257C79.0968 293.943 79.3931 292.764 79.9856 291.721C80.5781 290.664 81.3832 289.84 82.4008 289.248C83.4313 288.655 84.5713 288.359 85.8208 288.359C87.2893 288.359 88.571 288.713 89.6659 289.421C90.7608 290.13 91.5594 291.135 92.0618 292.436H89.9557C89.5821 291.624 89.0411 290.999 88.3327 290.561C87.6371 290.123 86.7998 289.904 85.8208 289.904C84.8805 289.904 84.0368 290.123 83.2896 290.561C82.5425 290.999 81.9564 291.624 81.5313 292.436C81.1063 293.234 80.8937 294.175 80.8937 295.257C80.8937 296.326 81.1063 297.266 81.5313 298.078C81.9564 298.876 82.5425 299.495 83.2896 299.933C84.0368 300.371 84.8805 300.59 85.8208 300.59C86.7998 300.59 87.6371 300.377 88.3327 299.952C89.0411 299.514 89.5821 298.889 89.9557 298.078H92.0618C91.5594 299.366 90.7608 300.364 89.6659 301.073C88.571 301.768 87.2893 302.116 85.8208 302.116C84.5713 302.116 83.4313 301.826 82.4008 301.246C81.3832 300.654 80.5781 299.836 79.9856 298.793C79.3931 297.749 79.0968 296.571 79.0968 295.257ZM110.206 288.533V302H108.448V295.894H101.589V302H99.8304V288.533H101.589V294.445H108.448V288.533H110.206ZM121.169 299.005H115.295L114.213 302H112.358L117.227 288.61H119.256L124.106 302H122.251L121.169 299.005ZM120.667 297.575L118.232 290.774L115.798 297.575H120.667ZM130.498 302.135C129.61 302.135 128.811 301.981 128.102 301.672C127.407 301.349 126.859 300.912 126.46 300.358C126.061 299.791 125.855 299.14 125.842 298.406H127.716C127.78 299.037 128.038 299.572 128.489 300.01C128.953 300.435 129.622 300.647 130.498 300.647C131.336 300.647 131.993 300.441 132.469 300.029C132.959 299.604 133.203 299.063 133.203 298.406C133.203 297.891 133.062 297.472 132.778 297.15C132.495 296.828 132.141 296.583 131.716 296.416C131.291 296.249 130.717 296.068 129.996 295.875C129.107 295.643 128.392 295.411 127.851 295.179C127.323 294.948 126.866 294.587 126.479 294.097C126.106 293.595 125.919 292.925 125.919 292.088C125.919 291.354 126.106 290.703 126.479 290.136C126.853 289.57 127.375 289.132 128.044 288.822C128.727 288.513 129.506 288.359 130.382 288.359C131.645 288.359 132.675 288.674 133.474 289.306C134.285 289.937 134.743 290.774 134.846 291.817H132.914C132.849 291.302 132.579 290.851 132.102 290.465C131.625 290.066 130.994 289.866 130.208 289.866C129.474 289.866 128.875 290.059 128.412 290.446C127.948 290.819 127.716 291.347 127.716 292.03C127.716 292.519 127.851 292.919 128.122 293.228C128.405 293.537 128.746 293.775 129.146 293.943C129.558 294.097 130.131 294.278 130.865 294.484C131.754 294.729 132.469 294.973 133.01 295.218C133.551 295.45 134.015 295.817 134.401 296.319C134.788 296.809 134.981 297.479 134.981 298.329C134.981 298.986 134.807 299.604 134.459 300.184C134.112 300.763 133.596 301.234 132.914 301.594C132.231 301.955 131.426 302.135 130.498 302.135ZM150.062 294.175V295.662H142.353V294.175H150.062ZM172.174 288.629V302H170.415V292.03L165.971 302H164.735L160.271 292.011V302H158.513V288.629H160.407L165.353 299.681L170.299 288.629H172.174ZM188.816 288.629V302H187.058V292.03L182.614 302H181.377L176.914 292.011V302H175.156V288.629H177.049L181.996 299.681L186.942 288.629H188.816ZM197.305 295.276L201.44 302H199.45L196.223 296.744L193.151 302H191.199L195.315 295.276L191.18 288.533H193.151L196.397 293.808L199.488 288.533H201.459L197.305 295.276ZM209.306 295.276L213.44 302H211.45L208.224 296.744L205.151 302H203.2L207.315 295.276L203.181 288.533H205.151L208.397 293.808L211.489 288.533H213.46L209.306 295.276ZM217.558 288.533V302H215.8V288.533H217.558ZM231.684 288.533L226.602 302H224.573L219.492 288.533H221.366L225.598 300.145L229.829 288.533H231.684Z" fill="#ADC8FF"/>
<path fill-rule="evenodd" clip-rule="evenodd" d="M142.279 234.276C206.793 234.276 259.415 181.657 259.415 117.137C259.415 52.6222 206.793 0 142.279 0C77.7615 0 25.1392 52.6191 25.1392 117.137C25.1392 181.654 77.7615 234.276 142.279 234.276Z" fill="#171717"/>
<path fill-rule="evenodd" clip-rule="evenodd" d="M41.6127 177.054C62.0514 211.318 99.4801 234.273 142.279 234.273C204.925 234.273 256.083 185.09 259.259 123.233L141.565 211.409L133.15 194.81L177.717 109.948L85.4631 171.173L87.7445 138.398L55.9552 162.01L41.6127 177.054Z" fill="#ADC8FF"/>
<path fill-rule="evenodd" clip-rule="evenodd" d="M38.0107 170.569L100.763 101.984C117.556 83.6292 125.464 76.2874 132.027 82.2961C137.71 87.4847 133.713 94.6669 126.76 107.16C124.704 110.856 122.284 115.199 119.85 119.675C114.464 129.57 110.261 137.056 106.434 143.875C97.4614 159.857 89.8474 165.29 107.11 149.793C116.673 141.202 127.539 131.467 138.354 121.821C149.749 111.66 161.387 101.323 172.043 91.9411C203.723 64.0418 181.36 83.7669 187.462 78.3842C215.512 53.6394 227.107 43.4153 233.222 52.0245C237.487 58.0394 231.76 64.8836 222.009 76.5565C214.435 85.6164 203.529 98.6695 191.75 113.779C172.256 138.777 152.08 167.396 143.646 186.952C141.312 192.366 139.982 196.738 140.004 199.636C140.004 199.658 139.929 199.655 139.816 199.639H139.713C140.827 199.811 142.579 199.652 145.042 199.129C179.069 191.897 226.806 143.621 258.965 106.938C259.259 110.296 259.415 113.697 259.415 117.137C259.415 122.807 259.002 128.378 258.226 133.832C225.245 169.393 182.048 209.259 148.694 216.347C142.679 217.624 137.782 217.555 133.882 216.322L133.886 216.316C126.018 213.822 122.494 208.023 122.444 199.705C122.407 194.178 124.237 187.478 127.467 179.995C134.048 164.727 146.989 144.71 161.362 124.916L150.065 134.975C138.536 145.255 127.871 154.809 118.889 162.874C92.6984 186.395 79.2916 192.563 73.38 185.979C67.5216 179.454 74.7852 164.548 86.333 143.756L47.5931 186.095C44.013 181.194 40.8022 176.005 38.0107 170.569ZM139.816 199.639C139.447 199.583 138.696 199.376 139.149 199.52H139.184C139.343 199.57 139.515 199.608 139.713 199.639H139.816Z" fill="white"/>
<path fill-rule="evenodd" clip-rule="evenodd" d="M61.3379 140.442C22.2287 190.877 42.6674 166.335 0.00315164 214.057H0C22.3664 172.819 29.9836 150.078 62.6492 94.7608C65.2153 91.0868 55.661 126.572 59.3319 129.138C63.0091 131.707 63.9041 136.768 61.3379 140.442Z" fill="#171717"/>
<path fill-rule="evenodd" clip-rule="evenodd" d="M223.192 120.172C241.671 105.902 274.662 74.4065 290 64.7834C279.829 88.8961 252.512 114.805 233.453 132.753C229.98 135.585 224.866 135.065 222.034 131.592C219.199 128.121 219.715 123.007 223.192 120.172Z" fill="#171717"/>
</svg>
