<svg width="290" height="235" viewBox="0 0 290 235" fill="none" xmlns="http://www.w3.org/2000/svg">
<path fill-rule="evenodd" clip-rule="evenodd" d="M142.279 234.276C206.793 234.276 259.415 181.657 259.415 117.137C259.415 52.6222 206.793 0 142.279 0C77.7615 0 25.1392 52.6191 25.1392 117.137C25.1392 181.654 77.7615 234.276 142.279 234.276Z" fill="#171717"/>
<path fill-rule="evenodd" clip-rule="evenodd" d="M41.6127 177.054C62.0514 211.318 99.4801 234.273 142.279 234.273C204.925 234.273 256.083 185.09 259.259 123.233L141.565 211.409L133.15 194.81L177.717 109.948L85.4631 171.173L87.7445 138.398L55.9552 162.01L41.6127 177.054Z" fill="#ADC8FF"/>
<path fill-rule="evenodd" clip-rule="evenodd" d="M38.0107 170.569L100.763 101.984C117.556 83.6292 125.464 76.2874 132.027 82.2961C137.71 87.4847 133.713 94.6669 126.76 107.16C124.704 110.856 122.284 115.199 119.85 119.675C114.464 129.57 110.261 137.056 106.434 143.875C97.4614 159.857 89.8474 165.29 107.11 149.793C116.673 141.202 127.539 131.467 138.354 121.821C149.749 111.66 161.387 101.323 172.043 91.9411C203.723 64.0418 181.36 83.7669 187.462 78.3842C215.512 53.6394 227.107 43.4153 233.222 52.0245C237.487 58.0394 231.76 64.8836 222.009 76.5565C214.435 85.6164 203.529 98.6695 191.75 113.779C172.256 138.777 152.08 167.396 143.646 186.952C141.312 192.366 139.982 196.738 140.004 199.636C140.004 199.658 139.929 199.655 139.816 199.639H139.713C140.827 199.811 142.579 199.652 145.042 199.129C179.069 191.897 226.806 143.621 258.965 106.938C259.259 110.296 259.415 113.697 259.415 117.137C259.415 122.807 259.002 128.378 258.226 133.832C225.245 169.393 182.048 209.259 148.694 216.347C142.679 217.624 137.782 217.555 133.882 216.322L133.886 216.316C126.018 213.822 122.494 208.023 122.444 199.705C122.407 194.178 124.237 187.478 127.467 179.995C134.048 164.727 146.989 144.71 161.362 124.916L150.065 134.975C138.536 145.255 127.871 154.809 118.889 162.874C92.6984 186.395 79.2916 192.563 73.38 185.979C67.5216 179.454 74.7852 164.548 86.333 143.756L47.5931 186.095C44.013 181.194 40.8022 176.005 38.0107 170.569ZM139.816 199.639C139.447 199.583 138.696 199.376 139.149 199.52H139.184C139.343 199.57 139.515 199.608 139.713 199.639H139.816Z" fill="white"/>
<path fill-rule="evenodd" clip-rule="evenodd" d="M61.3379 140.442C22.2287 190.877 42.6674 166.335 0.00315164 214.057H0C22.3664 172.819 29.9836 150.078 62.6492 94.7608C65.2153 91.0868 55.661 126.572 59.3319 129.138C63.0091 131.707 63.9041 136.768 61.3379 140.442Z" fill="#171717"/>
<path fill-rule="evenodd" clip-rule="evenodd" d="M223.192 120.172C241.671 105.902 274.662 74.4066 290 64.7834C279.829 88.8961 252.512 114.805 233.453 132.753C229.98 135.585 224.866 135.065 222.034 131.592C219.199 128.121 219.715 123.007 223.192 120.172Z" fill="#171717"/>
</svg>
